<?xml version="1.0" encoding="UTF-8" standalone="no"?>
<!-- Created with Inkscape (http://www.inkscape.org/) -->

<svg
   width="100mm"
   height="100mm"
   viewBox="0 0 100 100"
   version="1.1"
   id="svg5"
   inkscape:version="1.1.2 (0a00cf5339, 2022-02-04)"
   sodipodi:docname="full_sun_happy.svg"
   xmlns:inkscape="http://www.inkscape.org/namespaces/inkscape"
   xmlns:sodipodi="http://sodipodi.sourceforge.net/DTD/sodipodi-0.dtd"
   xmlns="http://www.w3.org/2000/svg"
   xmlns:svg="http://www.w3.org/2000/svg">
  <sodipodi:namedview
     id="namedview7"
     pagecolor="#ffffff"
     bordercolor="#666666"
     borderopacity="1.0"
     inkscape:pageshadow="2"
     inkscape:pageopacity="0.0"
     inkscape:pagecheckerboard="0"
     inkscape:document-units="mm"
     showgrid="false"
     width="100mm"
     inkscape:zoom="1.1367284"
     inkscape:cx="44.42574"
     inkscape:cy="269.63345"
     inkscape:window-width="1920"
     inkscape:window-height="1055"
     inkscape:window-x="0"
     inkscape:window-y="0"
     inkscape:window-maximized="1"
     inkscape:current-layer="layer1" />
  <defs
     id="defs2" />
  <g
     inkscape:label="Ebene 1"
     inkscape:groupmode="layer"
     id="layer1">
    <path
       style="opacity:1;fill:#000000;fill-opacity:1;stroke-width:0.418942"
       d="m 48.216834,96.554644 c -1.847389,-0.776746 -2.252266,-2.627165 -2.086181,-9.534612 0.138543,-5.759617 0.147144,-5.804389 1.314842,-6.807824 1.536317,-1.320134 3.377527,-1.313012 4.708784,0.01801 1.00562,1.005605 1.028321,1.175449 1.028321,7.693952 0,6.005983 -0.08204,6.769853 -0.828464,7.718838 -1.018182,1.294396 -2.467221,1.613619 -4.137295,0.911384 z M 25.91908,90.12689 c -0.673516,-0.673586 -1.224608,-1.654306 -1.224608,-2.179479 0,-1.24747 6.098515,-11.967965 7.118762,-12.514004 2.18654,-1.170192 4.833267,-0.01286 5.26774,2.302654 0.238286,1.270378 -0.11549,2.113085 -2.966378,7.065748 -3.205503,5.568634 -4.122263,6.549675 -6.120523,6.549675 -0.467754,0 -1.401454,-0.551007 -2.074993,-1.224594 z m 43.338202,0.615553 c -1.432208,-1.00313 -6.857937,-10.902509 -6.857937,-12.512478 0,-3.093499 3.945597,-4.414292 5.976533,-2.000649 1.9681,2.338938 6.172812,10.323272 6.172812,11.721552 0,2.663786 -3.1222,4.310971 -5.291408,2.791607 z m -59.152786,-16.2804 c -1.2373087,-1.317063 -1.2219497,-3.627771 0.0318,-4.771984 1.952519,-1.782079 10.932209,-6.575333 12.318262,-6.575333 1.578734,0 2.887021,1.02583 3.273828,2.567009 0.551014,2.195411 -0.357102,3.139541 -6.279769,6.52884 -6.22393,3.561699 -7.76441,3.932879 -9.344028,2.251468 z m 34.908715,0.684856 c -5.419737,-1.212954 -11.178604,-4.60706 -14.28285,-8.417841 -3.857943,-4.736038 -5.731791,-9.86332 -5.776399,-15.805577 -0.05421,-7.216799 2.203849,-12.750676 7.269866,-17.816692 5.065993,-5.065999 10.599894,-7.324026 17.816689,-7.26985 5.94226,0.04485 11.069535,1.918453 15.805572,5.776385 2.826138,2.302171 6.15285,7.126516 7.434404,10.781327 1.27434,3.634185 1.591599,10.024112 0.688549,13.86756 -2.11003,8.980133 -9.513979,16.449905 -18.375986,18.539358 -2.432609,0.573562 -8.653021,0.77657 -10.579816,0.345395 z m 7.3315,-6.862434 c 3.845383,-0.618141 6.754368,-2.078474 9.658467,-4.848507 10.107134,-9.640586 5.735732,-26.598832 -7.756511,-30.090327 -13.172939,-3.408863 -25.192884,8.61106 -21.784011,21.784006 1.931023,7.462055 8.302175,12.617791 16.739973,13.546505 0.23048,0.02524 1.644351,-0.150954 3.142082,-0.391661 z m 28.069166,4.171817 c -2.880228,-1.634662 -5.472439,-3.272426 -5.760463,-3.639459 -0.28801,-0.367016 -0.523621,-1.352543 -0.523621,-2.190009 0,-1.925863 1.389581,-3.344511 3.276005,-3.344511 1.553196,0 11.478553,5.465618 12.453759,6.857933 0.923023,1.317787 0.748148,3.095654 -0.419247,4.263113 -1.696909,1.696893 -3.162965,1.380644 -9.026336,-1.947067 z M 4.2594936,53.413389 C 3.5177444,52.893827 3.3283877,52.353253 3.3283877,50.755197 c 0,-3.28204 0.602111,-3.575026 7.6883363,-3.741108 7.215935,-0.16912 8.881072,0.214375 9.727518,2.240151 0.701703,1.679417 0.301452,3.128304 -1.143858,4.140629 -1.386805,0.971364 -13.9588623,0.98654 -15.3408904,0.01801 z M 78.928562,53.03729 c -1.331276,-1.331275 -1.338417,-3.172482 -0.01801,-4.70879 1.007133,-1.172057 1.027453,-1.175851 7.017295,-1.314362 7.300973,-0.168847 8.959138,0.209873 9.807423,2.240134 0.701704,1.679433 0.301459,3.128304 -1.143859,4.140629 -0.783049,0.548419 -2.203803,0.670629 -7.795907,0.670629 -6.701931,0 -6.858914,-0.02026 -7.866706,-1.028305 z M 15.896672,35.168544 c -2.880227,-1.635643 -5.57845,-3.301492 -5.9960594,-3.701866 -1.6874845,-1.617895 -0.5719734,-5.157344 1.7888124,-5.675861 1.421719,-0.312213 1.65048,-0.216094 7.880865,3.312584 4.545892,2.574661 5.962084,3.89772 5.962084,5.570048 0,1.302354 -2.141326,3.472798 -3.424064,3.470644 -0.536197,-8.84e-4 -3.33141,-1.339891 -6.211638,-2.975549 z m 60.040969,2.555321 c -1.639978,-0.66079 -2.34901,-3.230516 -1.387202,-5.027658 0.636946,-1.190095 11.315134,-7.118767 12.821718,-7.118767 1.445768,0 2.969569,1.234142 3.338434,2.703832 0.514306,2.049456 -0.613816,3.188685 -6.52622,6.589736 -5.643194,3.246222 -6.518715,3.549079 -8.24673,2.852857 z M 31.720559,25.591892 c -0.575732,-0.452927 -2.327813,-3.045101 -3.893474,-5.760466 -3.235575,-5.611602 -3.654247,-7.561113 -1.924584,-8.961715 1.068982,-0.865605 3.002774,-1.0354111 4.241505,-0.372497 1.020249,0.546026 7.118764,11.266538 7.118764,12.514005 0,1.267002 -2.179899,3.404089 -3.472285,3.404089 -0.562722,0 -1.494175,-0.370537 -2.069926,-0.823432 z m 32.486672,0.401628 c -1.119234,-0.450982 -1.807886,-1.659419 -1.807886,-3.172529 0,-1.162788 4.84937,-10.094358 6.407745,-11.80176 1.185617,-1.2990149 3.597622,-1.2855367 4.830687,0.02673 1.543146,1.642631 1.188971,3.155249 -2.08332,8.897154 -3.654875,6.413302 -4.57186,7.168394 -7.347226,6.050176 z M 48.286186,21.608928 c -1.924902,-0.832222 -2.323287,-2.602699 -2.155533,-9.579632 0.138543,-5.7596173 0.147144,-5.8043908 1.314842,-6.8078212 1.536317,-1.3201546 3.377527,-1.3130216 4.708784,0.018069 1.006046,1.0060396 1.028321,1.1733962 1.028321,7.7270732 0,6.360362 -0.04698,6.751154 -0.942628,7.735634 -1.238731,1.362564 -2.323562,1.611285 -3.953786,0.906482 z"
       id="path72658" />
    <ellipse
       style="fill:#000000;stroke:#000000;stroke-width:1.34344"
       id="path844"
       cx="41.880089"
       cy="44.835022"
       rx="4.0408921"
       ry="3.8398571" />
    <ellipse
       style="fill:#000000;stroke:#000000;stroke-width:1.35446"
       id="path846"
       cx="55.749748"
       cy="47.918228"
       rx="4.8631191"
       ry="4.719893" />
    <path
       id="path870"
       style="fill:#000000;stroke:#000000;stroke-width:0.590775"
       d="m 37.262537,52.944218 a 12.164156,10.915129 12.540793 0 0 9.72389,10.723572 12.164156,10.915129 12.540793 0 0 13.352788,-5.590356 l -3.846449,-0.85561 a 8.1446568,5.1983278 12.540793 0 1 -0.06698,0.467297 8.1446568,5.1983278 12.540793 0 1 -9.078879,3.305911 8.1446568,5.1983278 12.540793 0 1 -6.821718,-6.842868 8.1446568,5.1983278 12.540793 0 1 0.137413,-0.451631 z" />
  </g>
</svg>
