<?xml version="1.0" encoding="UTF-8" standalone="no"?>
<!-- Created with Inkscape (http://www.inkscape.org/) -->

<svg
   width="100mm"
   height="100mm"
   viewBox="0 0 100 100"
   version="1.1"
   id="svg5"
   inkscape:version="1.1.2 (0a00cf5339, 2022-02-04)"
   sodipodi:docname="sun.svg"
   xmlns:inkscape="http://www.inkscape.org/namespaces/inkscape"
   xmlns:sodipodi="http://sodipodi.sourceforge.net/DTD/sodipodi-0.dtd"
   xmlns="http://www.w3.org/2000/svg"
   xmlns:svg="http://www.w3.org/2000/svg">
  <sodipodi:namedview
     id="namedview7"
     pagecolor="#ffffff"
     bordercolor="#666666"
     borderopacity="1.0"
     inkscape:pageshadow="2"
     inkscape:pageopacity="0.0"
     inkscape:pagecheckerboard="0"
     inkscape:document-units="mm"
     showgrid="false"
     width="100mm"
     inkscape:zoom="0.5683642"
     inkscape:cx="387.07575"
     inkscape:cy="138.11567"
     inkscape:window-width="1321"
     inkscape:window-height="1041"
     inkscape:window-x="589"
     inkscape:window-y="4"
     inkscape:window-maximized="1"
     inkscape:current-layer="layer1" />
  <defs
     id="defs2" />
  <g
     inkscape:label="Ebene 1"
     inkscape:groupmode="layer"
     id="layer1">
    <path
       style="opacity:1;fill:#000000;stroke-width:0.922;fill-opacity:1;stroke:#000000;stroke-opacity:1;stroke-miterlimit:4;stroke-dasharray:none"
       d="m 49.045655,95.563849 c -0.722249,-0.363946 -1.123237,-0.765021 -1.487511,-1.487516 -0.464021,-0.919639 -0.498712,-1.277127 -0.498712,-5.105708 0,-3.828579 0.03229,-4.186079 0.498712,-5.105717 0.536645,-1.064412 1.950874,-1.986159 3.047242,-1.986159 1.096368,0 2.510524,0.921747 3.047327,1.986159 0.464022,0.919638 0.498713,1.277138 0.498713,5.105717 0,3.828581 -0.03229,4.186069 -0.498713,5.105708 -0.536644,1.064423 -1.950959,1.986158 -3.047327,1.986158 -0.313913,0 -1.01591,-0.224342 -1.559731,-0.498715 z M 19.604279,83.431469 c -1.019699,-0.243703 -2.225575,-1.497765 -2.46985,-2.568792 -0.393798,-1.72687 -0.03229,-2.34857 3.404339,-5.779229 2.521734,-2.52077 3.325331,-3.192989 4.081795,-3.414832 2.557656,-0.749694 5.035816,1.730171 4.278292,4.281782 -0.220295,0.741613 -0.899457,1.570631 -3.193146,3.896609 -3.551121,3.601252 -4.26813,4.022494 -6.10143,3.584462 z m 59.924323,-0.114541 c -1.304819,-0.464011 -6.839507,-6.088051 -7.203695,-7.319837 -0.767443,-2.596318 1.684897,-5.085065 4.265302,-4.328428 1.364368,0.40026 7.113708,6.13946 7.452808,7.439837 0.402682,1.542229 -0.381699,3.378289 -1.745993,4.08989 -0.711757,0.37121 -1.913185,0.42285 -2.768422,0.118562 z M 47.271185,74.543303 C 40.714044,73.695239 34.045715,69.595918 30.255156,64.082752 20.619787,50.068884 27.485113,30.906503 43.84724,26.144649 c 11.489164,-3.34367 24.043953,2.361962 29.143669,13.244643 7.060044,15.065729 -2.319754,32.587633 -18.772343,35.067581 -2.349522,0.354273 -4.655641,0.382518 -6.947381,0.0864 z m 8.170206,-7.49891 c 5.959802,-1.717986 10.667095,-6.531091 12.368455,-12.646509 0.295355,-1.062801 0.401073,-2.225024 0.401073,-4.432367 0,-2.207427 -0.104914,-3.369649 -0.401073,-4.432452 -1.714678,-6.163464 -6.408324,-10.931216 -12.485871,-12.683259 -2.282796,-0.657695 -6.942385,-0.703693 -9.15101,-0.08883 -5.072458,1.41126 -9.406034,4.999926 -11.542596,9.55869 -1.136555,2.424909 -1.534314,4.023225 -1.684897,6.769567 -0.475317,8.676374 5.399359,16.33402 14.003234,18.252234 2.151575,0.47934 6.301886,0.334896 8.492685,-0.296977 z M 6.4947025,53.012772 C 5.4302838,52.476124 4.5085528,51.061889 4.5085528,49.965517 c 0,-1.096457 0.921731,-2.510534 1.9861497,-3.047339 0.9195499,-0.464024 1.277049,-0.498715 5.1056855,-0.498715 3.828563,0 4.186063,0.03229 5.105698,0.498715 1.064406,0.536647 1.986149,1.950882 1.986149,3.047339 0,1.096372 -0.921743,2.51045 -1.986149,3.047255 -0.919635,0.464023 -1.277135,0.498714 -5.105698,0.498714 -3.8286365,0 -4.1861356,-0.03229 -5.1056855,-0.498714 z m 78.0100695,0 c -1.064492,-0.536648 -1.98615,-1.950883 -1.98615,-3.047255 0,-1.096457 0.921658,-2.510534 1.98615,-3.047339 0.91955,-0.464024 1.277049,-0.498715 5.105613,-0.498715 3.828564,0 4.186136,0.03229 5.105771,0.498715 1.064419,0.536647 1.986064,1.950882 1.986064,3.047339 0,1.096372 -0.921645,2.51045 -1.986064,3.047255 -0.919635,0.464023 -1.277207,0.498714 -5.105771,0.498714 -3.828564,0 -4.186063,-0.03229 -5.105613,-0.498714 z M 24.121851,28.056904 c -0.507596,-0.241278 -2.13342,-1.689984 -3.801294,-3.385295 -2.290778,-2.328475 -2.96509,-3.152571 -3.149487,-3.849245 -0.691579,-2.611891 1.679487,-4.982563 4.291367,-4.291384 0.696428,0.183996 1.521324,0.85903 3.850119,3.1495 1.942405,1.910378 3.114053,3.247224 3.400135,3.879428 1.287053,2.844456 -1.77157,5.840557 -4.59084,4.496996 z m 50.496819,0.169472 c -1.738159,-0.503552 -2.822902,-2.497216 -2.31014,-4.245872 0.400257,-1.364202 6.139361,-7.113652 7.439806,-7.452838 2.617046,-0.682699 4.982153,1.684428 4.291367,4.294783 -0.1848,0.696432 -0.85871,1.520758 -3.149402,3.849233 -3.544748,3.603119 -4.410647,4.093839 -6.271631,3.554694 z M 49.045655,17.553511 C 48.323406,17.189564 47.922418,16.788488 47.558144,16.066079 47.094123,15.14644 47.059432,14.78894 47.059432,10.96036 c 0,-3.828662 0.03229,-4.1861564 0.498712,-5.1057163 0.536645,-1.0644949 1.950874,-1.9861528 3.047242,-1.9861528 1.096368,0 2.510524,0.9216579 3.047327,1.9861528 0.464022,0.9195599 0.498713,1.2770543 0.498713,5.1057163 0,3.82858 -0.03229,4.18608 -0.498713,5.105719 -0.536644,1.064411 -1.950959,1.986073 -3.047327,1.986073 -0.313913,0 -1.01591,-0.224342 -1.559731,-0.498728 z"
       id="path42504-2" />
  </g>
</svg>
