<?xml version="1.0" encoding="UTF-8" standalone="no"?>
<!-- Created with Inkscape (http://www.inkscape.org/) -->

<svg
   width="100mm"
   height="100mm"
   viewBox="0 0 100 100"
   version="1.1"
   id="svg5"
   inkscape:version="1.1.2 (0a00cf5339, 2022-02-04)"
   sodipodi:docname="sun_cloud.svg"
   xmlns:inkscape="http://www.inkscape.org/namespaces/inkscape"
   xmlns:sodipodi="http://sodipodi.sourceforge.net/DTD/sodipodi-0.dtd"
   xmlns="http://www.w3.org/2000/svg"
   xmlns:svg="http://www.w3.org/2000/svg">
  <sodipodi:namedview
     id="namedview7"
     pagecolor="#ffffff"
     bordercolor="#666666"
     borderopacity="1.0"
     inkscape:pageshadow="2"
     inkscape:pageopacity="0.0"
     inkscape:pagecheckerboard="0"
     inkscape:document-units="mm"
     showgrid="false"
     width="100mm"
     inkscape:zoom="0.90509668"
     inkscape:cx="-29.27864"
     inkscape:cy="317.64562"
     inkscape:window-width="1920"
     inkscape:window-height="1055"
     inkscape:window-x="0"
     inkscape:window-y="0"
     inkscape:window-maximized="1"
     inkscape:current-layer="layer1" />
  <defs
     id="defs2" />
  <g
     inkscape:label="Ebene 1"
     inkscape:groupmode="layer"
     id="layer1">
    <path
       style="fill:#000000;stroke-width:0.24902"
       d="m 19.086306,96.548363 c -1.164167,-0.10184 -2.6018,-0.36365 -3.19474,-0.58178 -4.856397,-1.78661 -9.0983849,-6.14762 -10.6565979,-10.95561 -0.84588,-2.61002 -0.962682,-6.89192 -0.251864,-9.23321 1.125031,-3.70561 3.606884,-7.2331 6.6948689,-9.51549 0.89317,-0.66015 1.183644,-1.03677 1.186114,-1.53785 0.0068,-1.37156 0.972464,-5.28542 1.812534,-7.34595 0.479132,-1.17522 1.377709,-2.8979 1.996838,-3.82819 1.075912,-1.61663 4.513872,-5.3022 4.945977,-5.3022 0.113347,0 0.206086,-0.11206 0.206086,-0.24902 0,-0.13696 -0.53228,-0.24944 -1.182844,-0.24995 -3.025553,-0.003 -4.679091,-3.17645 -2.780984,-5.33828 1.010505,-1.1509 1.962718,-1.38126 5.716455,-1.38293 3.835938,-0.002 5.012598,0.43826 5.837562,2.18273 0.467507,0.98858 0.55559,1.05145 1.250006,0.89216 0.410883,-0.0943 1.5875,-0.29269 2.614706,-0.44098 l 1.867647,-0.26961 0.165621,-1.50109 c 0.548849,-4.974449 2.797795,-9.440715 6.592398,-13.092084 3.848999,-3.703715 8.250318,-5.593335 13.661589,-5.865339 6.206559,-0.311979 12.078189,2.07692 16.469049,6.700506 6.37255,6.710303 7.70581,16.720357 3.33328,25.026067 l -1.25954,2.39254 0.97016,1.88539 c 0.53359,1.03696 1.10464,2.3056 1.269,2.8192 0.2898,0.9056 0.33448,0.93383 1.47841,0.93383 1.07735,0 1.33211,0.12839 2.93957,1.48147 0.96799,0.81481 2.38952,2.2399 3.15895,3.16688 1.25561,1.51271 1.39896,1.80369 1.39896,2.83955 0,0.79002 -0.17965,1.42072 -0.56945,1.99914 l -0.56945,0.84502 0.60626,1.61975 c 0.47847,1.27834 0.6307,2.25134 0.72222,4.61613 0.13554,3.50233 -0.20038,5.21039 -1.57948,8.03116 -1.75873,3.59722 -4.49993,6.2096 -8.69364,8.28505 l -2.48845,1.23153 -25.775277,-0.0367 c -14.176403,-0.0202 -26.727777,-0.12001 -27.891944,-0.22186 z m 46.193141,-7.93237 c 5.28835,-0.16672 6.11172,-0.24875 7.15115,-0.71251 1.57868,-0.70435 3.52032,-2.56706 4.29383,-4.11929 0.55281,-1.10935 0.63178,-1.5845 0.627,-3.77275 -0.004,-1.89423 -0.1169,-2.74599 -0.46331,-3.49964 -0.72312,-1.57324 -2.23069,-3.06053 -4.38711,-4.32811 -2.43956,-1.43402 -2.95951,-2.24968 -3.35246,-5.25914 -0.20869,-1.59832 -0.52316,-2.61936 -1.28413,-4.1694 -1.21388,-2.4726 -2.2872,-3.4706 -4.92282,-4.57738 -2.59896,-1.09139 -4.740554,-1.09867 -7.782954,-0.0265 -1.183692,0.41716 -2.380959,0.88091 -2.660588,1.03056 -0.782506,0.41879 -3.434413,0.3339 -4.351077,-0.13928 -0.438322,-0.22626 -1.52533,-1.10213 -2.415575,-1.94638 -2.134147,-2.02388 -3.76095,-3.16991 -6.028109,-4.24657 -5.297315,-2.51569 -11.879396,-0.5079 -15.90076,4.85033 -2.270137,3.02482 -3.08713,6.06484 -2.768649,10.30212 0.109912,1.46234 0.09034,2.50497 -0.04864,2.59086 -0.127913,0.079 -1.30787,0.6704 -2.622128,1.3141 -2.654678,1.30021 -4.17008,2.69589 -5.087451,4.68553 -0.826618,1.7928 -0.769381,5.15607 0.120032,7.05314 0.842411,1.79682 2.374112,3.32505 4.159643,4.15024 1.302725,0.60206 1.746215,0.66126 6.013316,0.80271 6.761293,0.22414 34.781355,0.23578 41.71078,0.0173 z m 5.00396,-38.9983 c 0.79256,-2.07821 1.08943,-6.10419 0.61767,-8.37662 -0.92801,-4.470187 -4.57223,-8.748488 -9.03129,-10.602701 -1.33783,-0.55631 -2.04227,-0.669751 -4.750789,-0.765053 -2.826405,-0.09945 -3.378875,-0.04796 -4.967877,0.46297 -2.195952,0.706093 -5.029249,2.563923 -6.534715,4.284895 -2.134964,2.440584 -3.621387,6.038639 -3.619363,8.761079 9.96e-4,1.24551 0.0091,1.2584 1.078648,1.69814 1.551022,0.6377 4.48142,2.64417 6.625727,4.53668 1.253284,1.10611 1.978917,1.58266 2.241177,1.47185 2.310907,-0.97638 3.489267,-1.18672 6.737832,-1.20276 3.74302,-0.0185 5.9675,0.45177 8.66739,1.83224 l 1.4179,0.72498 0.42646,-0.54128 c 0.23455,-0.29771 0.7256,-1.3257 1.09123,-2.28442 z m 15.29113,-2.04352 c -0.58072,-0.21228 -1.50561,-1.12488 -1.8913,-1.86618 -0.71586,-1.37585 -0.24052,-2.94763 1.20274,-3.97704 0.75075,-0.53548 1.0994,-0.58557 4.54837,-0.65352 3.201,-0.0631 3.85925,-0.01 4.6019,0.37353 1.83868,0.94866 2.49925,3.06214 1.47504,4.71935 -0.87716,1.41927 -1.47777,1.58213 -5.7533,1.56007 -2.09545,-0.0108 -3.97801,-0.0811 -4.18345,-0.15621 z M 33.380041,25.623615 c -0.534152,-0.390909 -1.991088,-1.769413 -3.237636,-3.063342 -2.646241,-2.746827 -2.95782,-3.525334 -2.111019,-5.274589 0.84134,-1.737978 2.806387,-2.423165 4.45209,-1.552388 0.724973,0.3836 4.946565,4.602188 5.61782,5.613823 0.954592,1.438649 0.230213,3.795383 -1.405088,4.571385 -1.266922,0.601193 -2.205811,0.517702 -3.316167,-0.294889 z m 43.047936,0.341548 c -1.05295,-0.457743 -1.80819,-1.723523 -1.80937,-3.032464 -9.9e-4,-1.2079 0.85551,-2.404438 3.64507,-5.091637 2.2406,-2.15839 2.73559,-2.463567 3.99584,-2.463567 1.29608,0 2.68125,1.087293 3.03988,2.386172 0.42586,1.542327 -0.0528,2.450598 -2.75579,5.228761 -3.21724,3.306775 -4.22284,3.795586 -6.11563,2.972735 z M 54.99303,16.952397 c -1.474037,-0.726425 -1.791039,-1.776912 -1.791039,-5.935191 0,-3.9970454 0.146887,-4.5531734 1.504281,-5.6953434 1.085685,-0.913545 2.639635,-0.904834 3.739886,0.02096 1.263979,1.063566 1.479359,1.890081 1.479359,5.6768244 0,3.786742 -0.21538,4.613257 -1.479359,5.676823 -0.936543,0.788048 -2.185524,0.880614 -3.453128,0.255922 z"
       id="path1366" />
  </g>
</svg>
